<?xml version="1.0" encoding="utf-8"?>
<!-- Generator: Adobe Illustrator 16.0.0, SVG Export Plug-In . SVG Version: 6.00 Build 0)  -->
<!DOCTYPE svg PUBLIC "-//W3C//DTD SVG 1.1//EN" "http://www.w3.org/Graphics/SVG/1.1/DTD/svg11.dtd">
<svg version="1.1" id="Calque_1" xmlns="http://www.w3.org/2000/svg" xmlns:xlink="http://www.w3.org/1999/xlink" x="0px" y="0px"
	 width="500px" height="500px" viewBox="0 0 500 500" enable-background="new 0 0 500 500" xml:space="preserve">
<image overflow="visible" width="1122" height="1122" id="BACKGROUND" xlink:href="CF51EA28.jpg"  transform="matrix(0.24 0 0 0.24 15 16)">
</image>
<g id="EURALENS">

	<polygon id="E1" fill="#D6D4D4" points="59.188,104.006 49.406,104.006 49.406,81.6 58.688,81.6 58.688,77.819 49.406,77.819 
		49.406,56.319 59.281,56.319 59.281,52.694 44.75,52.694 44.75,107.694 59.188,107.694 	"/>

	<path id="U" fill="#D6D4D4" d="M83.076,93.444c0,5.229-0.391,8.38-1.172,9.453c-0.782,1.073-2.109,1.609-3.985,1.609
		c-2.292,0-3.75-1.156-4.375-3.469c-0.333-1.271-0.5-3.813-0.5-7.625V52.694h-4.657v40.875c0,5.146,0.672,8.896,2.016,11.25
		c1.344,2.355,3.911,3.532,7.703,3.532c3.792,0,6.344-1.172,7.656-3.516s1.969-6.099,1.969-11.266V52.694h-4.656V93.444z"/>

	<path id="R" fill="#D6D4D4" d="M103.872,80.569l4.937,0.313c2.313,0,3.703,0.521,4.171,1.563c0.469,1.042,0.704,3.479,0.704,7.312
		v6.063c0,3.813,0.031,6.589,0.094,8.328c0.062,1.74,0.26,2.922,0.594,3.547h4.625c-0.312-0.854-0.505-1.578-0.578-2.172
		c-0.073-0.594-0.109-2.838-0.109-6.734c0-9.396-0.615-15.292-1.844-17.688c-0.396-0.771-0.844-1.317-1.343-1.641
		c-0.5-0.323-1.115-0.547-1.845-0.672c1.854-0.5,3.162-1.786,3.923-3.859c0.76-2.073,1.14-4.745,1.14-8.016
		c0-3.271-0.13-5.766-0.391-7.484s-0.87-3.172-1.828-4.359c-1.271-1.583-3.792-2.375-7.563-2.375h-9.343v55h4.657V80.569z
		 M103.84,56.569h5.218c1.333,0,2.307,0.229,2.922,0.688c0.614,0.458,1.052,1.333,1.313,2.625c0.26,1.292,0.391,3.323,0.391,6.094
		v0.406c0,3.771-0.146,6.287-0.438,7.547c-0.292,1.261-0.724,2.162-1.297,2.703c-0.573,0.542-1.651,0.813-3.234,0.813h-4.875V56.569
		z"/>

	<path id="A" fill="#D6D4D4" d="M134.947,52.694l-8.844,55h4.406l1.657-11.156h11l1.813,11.156h4.501l-9.782-55H134.947z
		 M132.76,92.694l4.656-31.125h0.063l5.062,31.125H132.76z"/>

	<polygon id="L" fill="#D6D4D4" points="172.556,104.006 162.806,104.006 162.806,52.694 158.149,52.694 158.149,107.694 
		172.556,107.694 	"/>

	<polygon id="E2" fill="#D6D4D4" points="180.038,107.694 194.476,107.694 194.476,104.006 184.694,104.006 184.694,81.6 
		193.976,81.6 193.976,77.819 184.694,77.819 184.694,56.319 194.569,56.319 194.569,52.694 180.038,52.694 	"/>

	<polygon id="N" fill="#D6D4D4" points="220.833,107.694 224.458,107.694 224.458,52.694 220.396,52.694 220.396,76.288 
		220.864,95.225 207.364,52.694 204.114,52.694 204.114,107.694 208.489,107.694 208.489,81.131 208.177,66.256 	"/>

	<path id="S" fill="#D6D4D4" d="M241.222,78.631l3.188,3.031c3.229,3.146,4.844,6.761,4.844,10.844c0,1.979-0.027,3.833-0.078,5.563
		c-0.053,1.729-0.355,3.203-0.906,4.422c-0.553,1.219-1.84,1.828-3.859,1.828c-2.021,0-3.359-0.938-4.016-2.813
		s-0.984-5.292-0.984-10.25v-5.625h-4.75v5.719c0,3.042,0.135,5.604,0.406,7.688c0.77,6.188,3.719,9.281,8.844,9.281
		c3.332,0,5.848-0.938,7.547-2.813c1.697-1.875,2.547-5.766,2.547-11.672s-2.219-11.141-6.656-15.703l-3-3.031
		c-2.459-2.458-3.787-3.895-3.984-4.313c-0.199-0.417-0.496-0.995-0.891-1.735c-0.396-0.739-0.594-2.14-0.594-4.203
		c0-5.896,1.582-8.844,4.75-8.844c1.563,0,2.645,0.479,3.25,1.438c0.332,0.521,0.656,1.292,0.969,2.313
		c0.313,1.021,0.469,3.948,0.469,8.781v3.438h4.781v-3.094c-0.021-6.354-0.428-10.375-1.219-12.063
		c-0.375-0.833-0.896-1.667-1.563-2.5c-1.209-1.542-3.355-2.313-6.438-2.313c-3.084,0-5.35,0.776-6.797,2.329
		c-1.449,1.552-2.328,3.817-2.641,6.797c-0.146,1.354-0.219,2.995-0.219,4.921c0,1.928,0.469,3.823,1.406,5.688
		C236.565,73.605,238.429,75.903,241.222,78.631z"/>

</g>
<g id="year_2017">	
	<path id="Number_2" fill="#E63312" d="M76.425,188.59c5.815-12.883,8.723-25.766,8.723-38.65c0-12.882-1.492-22.119-4.474-27.709
		c-2.983-5.589-8.046-8.384-15.189-8.384c-7.144,0-12.445,2.833-15.904,8.497c-3.459,5.666-5.188,14.789-5.188,27.372v17.896h11.354
		v-17.596c0-9.374,0.751-16.18,2.256-20.417c1.503-4.235,3.922-6.354,7.256-6.354c3.333,0,5.752,2.081,7.257,6.241
		c1.504,4.162,2.256,11.467,2.256,21.919c0,10.453-3.56,23.525-10.678,39.215c-3.008,6.518-5.967,12.834-8.874,18.949
		c-7.068,14.689-10.602,25.039-10.602,31.055c0,0.051,0,0.102,0,0.15v6.918h38.726v-9.098H55.897
		c1.654-9.223,5.89-20.529,12.708-33.914C71.312,199.52,73.918,194.154,76.425,188.59z"/>
		
	<path id="Number_0" fill="#E63312" d="M124.357,113.771c-8.322,0-14.337,2.771-18.047,8.309c-3.71,5.54-5.564,14.426-5.564,26.656
		v63.24c0,13.033,1.854,22.51,5.564,28.424c3.709,5.916,9.7,8.873,17.972,8.873c8.272,0,14.299-2.957,18.084-8.873
		c3.785-5.914,5.678-15.391,5.678-28.424v-63.24c0-12.23-1.868-21.116-5.602-26.656C138.707,116.542,132.678,113.771,124.357,113.771
		z M136.84,212.352c0,9.727-1.004,16.77-3.008,21.131c-2.006,4.361-5.214,6.541-9.625,6.541c-4.412,0-7.571-2.18-9.475-6.541
		c-1.905-4.361-2.857-11.404-2.857-21.131v-64.518c0-8.672,0.952-14.963,2.857-18.874c1.904-3.91,5.063-5.865,9.475-5.865
		c4.411,0,7.619,1.968,9.625,5.903c2.004,3.936,3.008,10.24,3.008,18.912V212.352z"/>
	
	<path id="Number_1" fill="#FFCC00" d="M171.802,126.629c-3.836,2.857-7.885,4.587-12.145,5.188v6.993c3.008,0,6.064-0.564,9.174-1.691
		c3.107-1.128,5.514-2.719,7.219-4.775v115.349h11.203V115.275h-6.691C178.556,119.988,175.636,123.772,171.802,126.629z"/>
	
	<path id="Number_7" fill="#FFCC00" d="M254.437,139.188c-0.652-9.073-2.732-15.566-6.242-19.476c-3.51-3.911-8.26-5.866-14.248-5.866
		c-5.992,0-10.516,1.116-13.572,3.346c-3.059,2.231-5.039,4.65-5.941,7.256c-0.902,2.607-1.717,5.402-2.443,8.384
		c-0.729,2.983-1.09,9.888-1.09,20.716v1.955c0,11.531,0.789,20.58,2.367,27.146c1.58,6.566,4.852,11.053,9.814,13.459
		c2.557,1.203,5.977,1.805,10.264,1.805c4.285,0,7.707-1.252,10.264-3.76v25.643c0,7.92-0.527,13.26-1.578,16.016
		c-1.055,2.758-3.359,4.137-6.92,4.137c-1.604,0-2.906-0.125-3.908-0.377c-2.156-0.551-3.748-2.205-4.775-4.963
		c-1.029-2.756-1.617-10.5-1.768-23.234v-1.881h-10.754c0,11.43,0.84,20.166,2.52,26.207s4.801,10.037,9.363,11.992
		c2.305,1.002,5.525,1.504,9.662,1.504c4.135,0,7.67-1.064,10.602-3.195c2.934-2.131,5.139-5.703,6.617-10.715
		c1.479-5.014,2.219-14.463,2.219-28.35v-53.539C254.888,147.984,254.737,143.248,254.437,139.188z M243.608,187.313
		c-3.008,1.354-5.891,2.029-8.648,2.029c-2.756,0-4.736-0.199-5.939-0.602c-2.256-0.801-3.961-2.98-5.113-6.541
		c-1.154-3.559-1.73-12.006-1.73-25.342v-3.684c0-6.666,0.189-12.081,0.564-16.243c0.377-4.161,1.316-7.456,2.82-9.889
		c1.504-2.43,3.959-3.646,7.369-3.646c1.604,0.051,3.008,0.327,4.211,0.827c2.055,0.902,3.646,3.109,4.775,6.617
		c1.127,3.51,1.691,11.004,1.691,22.484V187.313z"/>
</g>
</svg>
